<?xml version="1.0" encoding="UTF-8"?>
<svg id="IconLogo" xmlns="http://www.w3.org/2000/svg" version="1.1" viewBox="0 0 1013.12 981.91">
  <!-- Generator: Adobe Illustrator 30.6.0, SVG Export Plug-In . SVG Version: 2.1.4 Build 109)  -->
  <defs>
    <style>
      .st0 {
        stroke: #ddc372;
        stroke-linecap: round;
        stroke-linejoin: round;
        stroke-width: 40px;
      }

      .st0, .st1 {
        fill: #ddc372;
      }
    </style>
  </defs>
  <path class="st1" d="M667.21,490.47c0,130.51-47.07,220.05-158.46,220.05s-167.42-93.15-167.42-223.66c0-121.95,70.2-215.46,170.09-215.46s155.79,97.12,155.79,219.08ZM438.97,489.26c0,69.53,16.13,151.07,61.5,151.07s65.94-79.73,65.94-149.26c0-55.63-18.03-142.04-63.4-142.04s-64.03,84.6-64.03,140.23Z"/>
  <g>
    <g>
      <path class="st1" d="M712.19,511.31c-.73,0-1.43-.32-1.9-.88-.48-.56-.69-1.3-.57-2.03.87-5.31,1.35-10.73,1.42-16.11.07-5.41-.26-10.87-1-16.24-.1-.71.12-1.44.59-1.98.47-.54,1.16-.86,1.88-.86,0,0,269.93-.69,269.94-.69.14,0,.29.01.43.04,6.85,1.18,13.25,3.97,18.51,8.06,3.43,2.66,6.36,5.85,8.73,9.47.56.85.54,1.95-.04,2.79-2.69,3.89-6.04,7.26-9.94,10.03-4.42,3.14-9.39,5.38-14.76,6.67-.19.04-.38.07-.57.07,0,0-272.71,1.66-272.72,1.66Z"/>
      <path class="st1" d="M982.56,475.02c3.7.64,10.69,2.36,17.4,7.57,3.95,3.07,6.54,6.37,8.17,8.86-1.74,2.51-4.69,6.13-9.33,9.42-5.38,3.82-10.65,5.5-13.9,6.28-90.9.55-181.8,1.11-272.7,1.66.78-4.77,1.37-10.31,1.46-16.48.09-6.22-.36-11.81-1.02-16.62,89.98-.23,179.95-.46,269.93-.69M982.56,470.02h-.01l-134.96.35-134.96.35c-1.44,0-2.81.63-3.76,1.72-.95,1.09-1.38,2.53-1.18,3.96.72,5.24,1.05,10.58.97,15.87-.07,5.25-.54,10.55-1.39,15.74-.24,1.45.18,2.94,1.13,4.06.95,1.11,2.34,1.75,3.8,1.75.01,0,.02,0,.03,0l136.56-.83,136.14-.83c.38,0,.76-.05,1.14-.14,5.68-1.36,10.94-3.74,15.63-7.06,4.15-2.94,7.7-6.52,10.55-10.65,1.16-1.67,1.19-3.88.08-5.58-2.51-3.85-5.64-7.24-9.29-10.08-5.59-4.34-12.37-7.3-19.62-8.55-.28-.05-.57-.07-.85-.07h0Z"/>
    </g>
    <g>
      <path class="st1" d="M707.67,451.57c-1.25,0-2.31-.92-2.48-2.16-.63-4.64-1.63-9.26-2.98-13.74-1.17-3.88-2.62-7.73-4.3-11.42-.35-.77-.29-1.67.17-2.39.46-.72,1.25-1.15,2.1-1.15,15.09,0,29.65-.03,44.49-.08,13.35-.04,23.33-.09,29.85-.13h2.55c20.18-.11,41.05-.21,78.42-.24h0c.14,0,.28.01.43.04,5.64.97,10.92,3.27,15.26,6.65,2.83,2.2,5.25,4.83,7.2,7.82.56.85.54,1.95-.04,2.79-2.22,3.21-4.98,5.99-8.2,8.28-3.65,2.59-7.74,4.44-12.17,5.5-.19.05-.38.07-.58.07,0,0-149.73.17-149.73.17Z"/>
      <path class="st1" d="M855.5,422.77c3.01.52,8.7,1.92,14.15,6.16,3.22,2.5,5.32,5.18,6.64,7.21-1.41,2.04-3.82,4.98-7.59,7.66-4.38,3.1-8.66,4.47-11.31,5.11-49.91.06-99.82.11-149.73.17-.56-4.14-1.5-8.92-3.06-14.12-1.34-4.45-2.89-8.37-4.42-11.74,10.24,0,25.66-.01,44.5-.07,15.24-.05,26.09-.11,32.4-.14,20.52-.1,41.04-.2,78.41-.22M855.5,417.77h0c-37.37.03-58.24.13-78.42.22l-3.25.02c-6.52.03-16.27.08-29.16.12-14.89.05-29.85.07-44.49.07-1.7,0-3.29.87-4.21,2.3-.92,1.43-1.05,3.23-.34,4.78,1.64,3.59,3.05,7.32,4.18,11.1,1.31,4.35,2.28,8.85,2.9,13.36.34,2.48,2.45,4.33,4.95,4.33h0l119.79-.14,29.94-.03c.39,0,.78-.05,1.16-.14,4.74-1.14,9.12-3.12,13.03-5.89,3.46-2.45,6.43-5.45,8.81-8.89,1.16-1.67,1.19-3.88.08-5.58-2.1-3.22-4.71-6.06-7.76-8.42-4.67-3.62-10.33-6.09-16.37-7.14-.28-.05-.57-.07-.85-.07h0Z"/>
    </g>
    <g>
      <path class="st1" d="M854.7,563.56c-37.38-.02-58.24-.13-78.42-.22h-2.55c-6.51-.05-16.5-.1-29.85-.14-14.85-.05-29.4-.07-44.49-.08-.85,0-1.64-.43-2.1-1.15-.46-.72-.52-1.62-.17-2.39,1.69-3.69,3.13-7.53,4.3-11.42,1.35-4.48,2.35-9.1,2.98-13.74.17-1.24,1.23-2.16,2.48-2.16,0,0,149.73.17,149.73.17.2,0,.39.02.58.07,4.43,1.06,8.52,2.91,12.17,5.5,3.22,2.28,5.98,5.07,8.2,8.27.58.84.59,1.94.04,2.79-1.95,2.99-4.37,5.62-7.2,7.82-4.34,3.37-9.62,5.67-15.26,6.65-.14.02-.28.04-.43.04h0Z"/>
      <path class="st1" d="M706.87,534.77c49.91.06,99.82.11,149.73.17,2.65.64,6.93,2,11.31,5.11,3.77,2.67,6.18,5.62,7.59,7.66-1.32,2.02-3.43,4.71-6.64,7.21-5.46,4.24-11.14,5.64-14.15,6.16-37.37-.03-57.89-.12-78.41-.22-6.32-.03-17.17-.09-32.4-.14-18.84-.06-34.26-.07-44.5-.07,1.54-3.36,3.09-7.29,4.42-11.74,1.57-5.2,2.5-9.99,3.06-14.12M706.87,529.77c-2.5,0-4.62,1.85-4.95,4.33-.61,4.51-1.59,9-2.9,13.36-1.14,3.78-2.54,7.51-4.18,11.1-.71,1.55-.58,3.35.34,4.78.92,1.43,2.5,2.3,4.21,2.3,14.64,0,29.61.03,44.49.07,12.89.04,22.64.09,29.16.12l3.24.02c20.18.1,41.04.2,78.43.22h0c.29,0,.57-.02.85-.07,6.04-1.04,11.7-3.51,16.37-7.14,3.05-2.37,5.66-5.2,7.76-8.42,1.11-1.7,1.08-3.91-.08-5.58-2.39-3.45-5.35-6.44-8.81-8.89-3.91-2.77-8.29-4.75-13.03-5.89-.38-.09-.77-.14-1.16-.14l-66.56-.08-83.17-.09h0Z"/>
    </g>
  </g>
  <g>
    <g>
      <path class="st1" d="M28.22,509.65c-.19,0-.38-.02-.57-.07-5.37-1.29-10.34-3.53-14.76-6.67-3.91-2.77-7.25-6.15-9.94-10.03-.58-.83-.59-1.94-.04-2.79,2.36-3.62,5.3-6.81,8.73-9.47,5.26-4.09,11.66-6.88,18.51-8.06.14-.02.28-.04.43-.04,0,0,269.94.69,269.94.69.72,0,1.41.32,1.88.86s.69,1.27.59,1.98c-.74,5.37-1.07,10.83-1,16.24.07,5.38.55,10.79,1.43,16.11.12.73-.09,1.47-.57,2.03-.48.56-1.17.88-1.9.88,0,0-272.72-1.66-272.72-1.66Z"/>
      <path class="st1" d="M30.57,475.02c89.98.23,179.95.46,269.93.69-.66,4.81-1.11,10.4-1.02,16.62.08,6.17.68,11.71,1.46,16.48-90.9-.55-181.8-1.11-272.7-1.66-3.26-.78-8.52-2.46-13.9-6.28-4.64-3.29-7.6-6.91-9.33-9.42,1.62-2.49,4.21-5.79,8.17-8.86,6.71-5.21,13.7-6.93,17.4-7.57M30.57,470.02c-.29,0-.57.02-.85.07-7.25,1.25-14.03,4.21-19.62,8.55-3.65,2.83-6.77,6.23-9.29,10.08-1.11,1.7-1.08,3.91.08,5.58,2.86,4.13,6.41,7.71,10.55,10.65,4.69,3.32,9.94,5.7,15.63,7.06.37.09.75.14,1.14.14l136.35.83,136.35.83s.02,0,.03,0c1.46,0,2.85-.64,3.8-1.75.96-1.12,1.37-2.6,1.13-4.06-.85-5.19-1.32-10.49-1.39-15.74-.07-5.29.26-10.63.97-15.87.2-1.43-.23-2.87-1.18-3.96-.95-1.09-2.32-1.71-3.76-1.72l-134.96-.35-134.96-.35h-.01Z"/>
    </g>
    <g>
      <path class="st1" d="M155.72,451.4c-.2,0-.39-.02-.58-.07-4.43-1.06-8.52-2.91-12.17-5.5-3.22-2.28-5.98-5.07-8.2-8.28-.58-.84-.59-1.94-.04-2.79,1.95-2.99,4.37-5.62,7.2-7.82,4.34-3.37,9.62-5.67,15.26-6.65.14-.02.28-.04.43-.04h0c37.38.02,58.24.13,78.42.22h2.55c6.51.05,16.5.1,29.85.14,14.85.05,29.4.07,44.49.08.85,0,1.64.43,2.1,1.15.46.72.52,1.62.17,2.39-1.69,3.69-3.13,7.53-4.3,11.42-1.35,4.48-2.35,9.1-2.98,13.74-.17,1.24-1.23,2.16-2.48,2.16,0,0-149.73-.17-149.73-.17Z"/>
      <path class="st1" d="M157.62,422.77c37.37.03,57.89.12,78.41.22,6.32.03,17.17.09,32.4.14,18.84.06,34.26.07,44.5.07-1.54,3.36-3.09,7.29-4.42,11.74-1.57,5.2-2.5,9.99-3.06,14.12-49.91-.06-99.82-.11-149.73-.17-2.65-.64-6.93-2-11.31-5.11-3.77-2.67-6.18-5.62-7.59-7.66,1.32-2.02,3.43-4.71,6.64-7.21,5.46-4.24,11.14-5.64,14.15-6.16M157.62,417.77c-.29,0-.57.02-.85.07-6.04,1.04-11.7,3.51-16.37,7.14-3.05,2.37-5.66,5.2-7.76,8.42-1.11,1.7-1.08,3.91.08,5.58,2.38,3.45,5.35,6.44,8.81,8.89,3.91,2.77,8.29,4.75,13.03,5.89.38.09.77.14,1.16.14l30.01.03,119.72.14h0c2.5,0,4.62-1.85,4.95-4.33.61-4.51,1.59-9,2.9-13.36,1.14-3.78,2.54-7.51,4.18-11.1.71-1.55.58-3.35-.34-4.78-.92-1.43-2.5-2.3-4.21-2.3-14.63,0-29.6-.03-44.49-.07-12.89-.04-22.64-.09-29.16-.12l-3.24-.02c-20.19-.1-41.06-.2-78.43-.22h0Z"/>
    </g>
    <g>
      <path class="st1" d="M158.43,563.56c-.14,0-.28-.01-.43-.04-5.64-.97-10.92-3.27-15.26-6.65-2.83-2.2-5.25-4.83-7.2-7.82-.55-.85-.54-1.95.04-2.79,2.22-3.21,4.98-5.99,8.2-8.28,3.65-2.59,7.74-4.44,12.17-5.5.19-.05.38-.07.58-.07,0,0,149.73-.17,149.73-.17,1.25,0,2.31.92,2.48,2.16.63,4.64,1.63,9.26,2.98,13.74,1.17,3.88,2.62,7.73,4.3,11.42.35.77.29,1.67-.17,2.39-.46.72-1.25,1.15-2.1,1.15-15.09,0-29.65.03-44.49.08-13.35.04-23.33.09-29.85.13h-2.55c-20.18.11-41.05.21-78.42.24h0Z"/>
      <path class="st1" d="M306.26,534.77c.56,4.14,1.5,8.92,3.06,14.12,1.34,4.45,2.89,8.37,4.42,11.74-10.24,0-25.66.01-44.5.07-15.24.05-26.09.11-32.4.14-20.52.1-41.04.2-78.41.22-3.01-.52-8.7-1.92-14.15-6.16-3.22-2.5-5.32-5.18-6.64-7.21,1.41-2.04,3.82-4.98,7.59-7.66,4.38-3.1,8.66-4.47,11.31-5.11,49.91-.06,99.82-.11,149.73-.17M306.26,529.77h0l-83.18.09-66.55.08c-.39,0-.78.05-1.16.14-4.74,1.14-9.12,3.12-13.03,5.89-3.46,2.45-6.43,5.45-8.81,8.89-1.16,1.67-1.19,3.88-.08,5.58,2.1,3.22,4.71,6.06,7.76,8.42,4.67,3.62,10.33,6.09,16.37,7.14.28.05.57.07.85.07h0c37.39-.03,58.26-.13,78.43-.22l3.24-.02c6.52-.03,16.27-.08,29.16-.12,14.88-.05,29.84-.07,44.49-.07,1.7,0,3.29-.87,4.21-2.3.92-1.43,1.05-3.23.34-4.78-1.64-3.59-3.05-7.32-4.18-11.1-1.31-4.35-2.28-8.85-2.9-13.36-.34-2.48-2.45-4.33-4.95-4.33h0Z"/>
    </g>
  </g>
  <g>
    <path class="st0" d="M512.41,864.79c-148.08-8.48-233.55-115.92-251.8-140.29-23.64-31.57-39.32-63.8-49.74-94.24h-121.38c15.89,74.96,49.08,143.11,112.31,206.2,72.9,71.64,147.5,125.44,299.82,125.44,93.73,0,180.57-24.06,232.65-52.44l.27-113.92c-23.88,18.07-106.49,75.87-222.12,69.24Z"/>
    <path class="st0" d="M210.43,354.64c12.26-37.03,31.85-76.46,63.14-112.86,44.03-51.21,92.3-74.43,102.97-79.39,57.85-26.88,108.7-27.23,145.95-27.09,92.51.36,166.71,30.04,213.13,54.32l-1.34-114.2c-79.41-44.61-152.32-55.42-213.51-55.42-123.68,0-231.73,33.79-318.96,118.96-51.59,49.81-91.86,121.59-111.62,215.68h120.24Z"/>
  </g>
</svg>